<svg width="16" height="10" viewBox="0 0 16 10" fill="none" xmlns="http://www.w3.org/2000/svg">
<path d="M0 5C0 5.1898 0.070238 5.37183 0.195262 5.50604C0.320287 5.64025 0.489856 5.71564 0.666667 5.71564H13.724L10.8627 8.78719C10.7412 8.92216 10.674 9.10294 10.6756 9.29057C10.6771 9.47821 10.7472 9.65771 10.8708 9.79039C10.9944 9.92308 11.1616 9.99834 11.3364 9.99997C11.5112 10.0016 11.6796 9.92947 11.8053 9.79911L15.8053 5.50525C15.867 5.43941 15.916 5.36113 15.9494 5.27491C15.9828 5.1887 16 5.09624 16 5.00286V5C16 4.90697 15.9827 4.81393 15.948 4.72662C15.9148 4.63986 15.8658 4.56105 15.804 4.49476L11.804 0.20089C11.6783 0.0705294 11.5099 -0.00160348 11.3351 2.70532e-05C11.1603 0.00165759 10.9931 0.076921 10.8695 0.209607C10.7458 0.342293 10.6757 0.521786 10.6742 0.709426C10.6727 0.897065 10.7399 1.07784 10.8613 1.21281L13.724 4.28436H0.666667C0.489856 4.28436 0.320287 4.35975 0.195262 4.49396C0.070238 4.62817 0 4.8102 0 5V5Z" fill="white"/>
</svg>
