<svg width="27" height="27" viewBox="0 0 27 27" fill="none" xmlns="http://www.w3.org/2000/svg">
<g clip-path="url(#clip0_153_2)">
<path d="M25 0H2C1 0 0 1 0 2V25C0 26 1 27 2 27H25C26 27 27 26 27 25V2C27 1 26 0 25 0Z" fill="white"/>
<path fill-rule="evenodd" clip-rule="evenodd" d="M2 0C1 0 0 1 0 2V25C0 26 1 27 2 27H9C9.75 27 10.1546 25.935 10.1546 25.5795C10.1546 25.2585 10.1423 24.1984 10.1363 23.0741C6.38063 23.8879 5.58787 21.4864 5.58787 21.4864C4.974 19.9309 4.089 19.5173 4.089 19.5173C2.86425 18.6821 4.18125 18.699 4.18125 18.699C5.53687 18.7939 6.25088 20.0858 6.25088 20.0858C7.45463 22.1434 9.40912 21.5483 10.1794 21.2048C10.3005 20.3347 10.6504 19.7411 11.0366 19.4047C8.03813 19.0646 4.88588 17.9108 4.88588 12.7545C4.88588 11.2853 5.41313 10.0845 6.27713 9.14213C6.1365 8.8035 5.6745 7.43475 6.40763 5.58113C6.40763 5.58113 7.54125 5.21925 10.1209 6.96038C11.1979 6.66225 12.3529 6.51263 13.5 6.50775C14.6475 6.51263 15.8033 6.66225 16.8821 6.96038C19.4588 5.21925 20.5909 5.58113 20.5909 5.58113C21.3259 7.43475 20.8635 8.8035 20.7233 9.14213C21.5888 10.0849 22.1126 11.2853 22.1126 12.7545C22.1126 17.9231 18.9544 19.0612 15.9484 19.3942C16.4325 19.812 16.8641 20.631 16.8641 21.8865C16.8641 23.6873 16.8484 25.1362 16.8484 25.5795C16.8484 25.9376 16.8484 27 18 27H25C26 27 26.2186 26.7812 26.5 26.5C26.7814 26.2188 27 26 27 25V2C27 1 26 0 25 0H2ZM5.11312 19.3219C5.08312 19.3886 4.97813 19.4085 4.88175 19.3627C4.78387 19.3189 4.72875 19.2278 4.76062 19.1606C4.78988 19.0916 4.89563 19.0725 4.99312 19.1186C5.09137 19.1625 5.14687 19.2548 5.11312 19.3219ZM5.65987 19.9294C5.59575 19.9894 5.46975 19.9616 5.38425 19.8675C5.29612 19.7738 5.27925 19.6481 5.34488 19.5877C5.41125 19.5281 5.53312 19.5563 5.62162 19.65C5.71012 19.7449 5.72738 19.869 5.65987 19.9294ZM6.19238 20.7049C6.10988 20.7619 5.9745 20.7086 5.89087 20.5886C5.808 20.4686 5.808 20.3254 5.89237 20.268C5.97638 20.2106 6.10988 20.262 6.19425 20.3809C6.27675 20.5028 6.27675 20.646 6.19238 20.7049ZM6.92138 21.4534C6.8475 21.5347 6.69 21.513 6.5745 21.402C6.45638 21.2933 6.42375 21.1395 6.498 21.0581C6.573 20.9767 6.73125 20.9996 6.8475 21.1095C6.9645 21.2183 7.0005 21.3731 6.92138 21.4534ZM7.9275 21.8884C7.89487 21.9934 7.743 22.0417 7.59 21.9971C7.43738 21.9506 7.33762 21.8273 7.36875 21.7208C7.40025 21.6146 7.5525 21.5647 7.70662 21.6127C7.85925 21.6585 7.959 21.7811 7.9275 21.8884ZM9.03225 21.969C9.036 22.08 8.90662 22.1719 8.74613 22.1741C8.58488 22.1775 8.454 22.0879 8.45212 21.9784C8.45212 21.8662 8.57888 21.7751 8.7405 21.7725C8.901 21.7695 9.03225 21.8587 9.03225 21.969ZM10.0605 21.7946C10.0796 21.9026 9.96825 22.014 9.80888 22.0436C9.65213 22.0721 9.507 22.0054 9.48713 21.8978C9.46763 21.7868 9.58088 21.6757 9.73763 21.6469C9.89738 21.6191 10.0406 21.6844 10.0605 21.7946Z" fill="url(#paint0_linear_153_2)"/>
</g>
<defs>
<linearGradient id="paint0_linear_153_2" x1="6.65538e-07" y1="14" x2="27" y2="14" gradientUnits="userSpaceOnUse">
<stop stop-color="#8B5CF6"/>
<stop offset="1" stop-color="#D946EF"/>
</linearGradient>
<clipPath id="clip0_153_2">
<rect width="27" height="27" fill="white"/>
</clipPath>
</defs>
</svg>
