<svg width="16" height="16" viewBox="0 0 16 16" fill="none" xmlns="http://www.w3.org/2000/svg">
<g clip-path="url(#clip0_192_7)">
<path d="M3.90627 2C1.75875 2 -0.0351001 3.7203 1.8782e-05 5.875C0.0282876 7.6094 1.3076 9.2744 2.71877 10.6875C4.12994 12.1006 5.74224 13.284 6.59377 13.9062L6.87502 14.0938L7.15627 13.9062C8.00713 13.2845 9.64513 12.0723 11.0625 10.6562C11.2032 10.5156 11.332 10.3635 11.4688 10.2188L11.0938 9.375L11.0313 9.21875C10.8094 9.47435 10.5892 9.72345 10.3438 9.96875C9.96015 10.3519 9.57431 10.7301 9.18752 11.0625C8.32262 11.8059 7.48401 12.3968 6.87502 12.8438C6.12615 12.2936 5.06435 11.4898 4.00002 10.5C3.81464 10.3276 3.62079 10.1523 3.43752 9.96875C2.09829 8.62765 1.01988 7.0936 1.00002 5.875C0.974042 4.2813 2.29834 3 3.90627 3C5.01168 3 5.94511 3.595 6.43752 4.5L6.87502 5.3125L7.31252 4.5C7.80493 3.595 8.73836 3 9.84377 3C10.0532 3 10.4042 3.05698 10.5801 3.10938C11.8359 3.42447 12.75 4.521 12.75 5.875L13.5313 4.6875C13.0198 3.1334 11.5709 2 9.84377 2C8.60008 2 7.5859 2.6537 6.87502 3.5625C6.16414 2.6537 5.14996 2 3.90627 2ZM10.5 4.23242L8.90432 7.95508L7.93947 6.50586L6.69142 9H5.00002V10H7.30861L8.06252 8.49414L9.09572 10.0469L10.5 6.76953L11.916 10.0703L13.0977 8.20117L13.627 10H15.5313V9H14.375L13.4336 5.80078L12.086 7.93164L10.5 4.23242Z" fill="black"/>
</g>
<defs>
<clipPath id="clip0_192_7">
<rect width="16" height="16" fill="white"/>
</clipPath>
</defs>
</svg>
