<svg width="32" height="32" viewBox="0 0 32 32" fill="none" xmlns="http://www.w3.org/2000/svg">
<path d="M27 7H5C4.20435 7 3.44129 7.31607 2.87868 7.87868C2.31607 8.44129 2 9.20435 2 10V26C2 26.7956 2.31607 27.5587 2.87868 28.1213C3.44129 28.6839 4.20435 29 5 29H27C27.7956 29 28.5587 28.6839 29.1213 28.1213C29.6839 27.5587 30 26.7956 30 26V10C30 9.20435 29.6839 8.44129 29.1213 7.87868C28.5587 7.31607 27.7956 7 27 7ZM16 23C16 23.2652 15.8946 23.5196 15.7071 23.7071C15.5196 23.8946 15.2652 24 15 24H7C6.73478 24 6.48043 23.8946 6.29289 23.7071C6.10536 23.5196 6 23.2652 6 23V20.78C6.00224 19.9279 6.23365 19.0921 6.66999 18.3602C7.10632 17.6283 7.7315 17.0272 8.48 16.62C8.18017 16.168 8.0085 15.6432 7.98325 15.1013C7.958 14.5595 8.08012 14.021 8.33662 13.5431C8.59311 13.0651 8.97438 12.6657 9.43986 12.3872C9.90533 12.1087 10.4376 11.9617 10.98 11.9617C11.5224 11.9617 12.0547 12.1087 12.5201 12.3872C12.9856 12.6657 13.3669 13.0651 13.6234 13.5431C13.8799 14.021 14.002 14.5595 13.9767 15.1013C13.9515 15.6432 13.7798 16.168 13.48 16.62C14.236 17.0219 14.8692 17.6207 15.3128 18.353C15.7564 19.0853 15.9939 19.9239 16 20.78V23ZM25 24H19C18.7348 24 18.4804 23.8946 18.2929 23.7071C18.1054 23.5196 18 23.2652 18 23C18 22.7348 18.1054 22.4804 18.2929 22.2929C18.4804 22.1054 18.7348 22 19 22H25C25.2652 22 25.5196 22.1054 25.7071 22.2929C25.8946 22.4804 26 22.7348 26 23C26 23.2652 25.8946 23.5196 25.7071 23.7071C25.5196 23.8946 25.2652 24 25 24ZM25 20H19C18.7348 20 18.4804 19.8946 18.2929 19.7071C18.1054 19.5196 18 19.2652 18 19C18 18.7348 18.1054 18.4804 18.2929 18.2929C18.4804 18.1054 18.7348 18 19 18H25C25.2652 18 25.5196 18.1054 25.7071 18.2929C25.8946 18.4804 26 18.7348 26 19C26 19.2652 25.8946 19.5196 25.7071 19.7071C25.5196 19.8946 25.2652 20 25 20ZM25 16H17C16.7348 16 16.4804 15.8946 16.2929 15.7071C16.1054 15.5196 16 15.2652 16 15C16 14.7348 16.1054 14.4804 16.2929 14.2929C16.4804 14.1054 16.7348 14 17 14H25C25.2652 14 25.5196 14.1054 25.7071 14.2929C25.8946 14.4804 26 14.7348 26 15C26 15.2652 25.8946 15.5196 25.7071 15.7071C25.5196 15.8946 25.2652 16 25 16ZM10 15C10 14.8022 10.0586 14.6089 10.1685 14.4444C10.2784 14.28 10.4346 14.1518 10.6173 14.0761C10.8 14.0004 11.0011 13.9806 11.1951 14.0192C11.3891 14.0578 11.5673 14.153 11.7071 14.2929C11.847 14.4327 11.9422 14.6109 11.9808 14.8049C12.0194 14.9989 11.9996 15.2 11.9239 15.3827C11.8482 15.5654 11.72 15.7216 11.5556 15.8315C11.3911 15.9414 11.1978 16 11 16C10.7348 16 10.4804 15.8946 10.2929 15.7071C10.1054 15.5196 10 15.2652 10 15ZM14 20.78V22H8V20.78C8.00264 20.0435 8.29637 19.3379 8.81715 18.8172C9.33793 18.2964 10.0435 18.0026 10.78 18H11.22C11.9565 18.0026 12.6621 18.2964 13.1828 18.8172C13.7036 19.3379 13.9974 20.0435 14 20.78ZM21 5H11C10.7348 5 10.4804 4.89464 10.2929 4.70711C10.1054 4.51957 10 4.26522 10 4C10 3.73478 10.1054 3.48043 10.2929 3.29289C10.4804 3.10536 10.7348 3 11 3H21C21.2652 3 21.5196 3.10536 21.7071 3.29289C21.8946 3.48043 22 3.73478 22 4C22 4.26522 21.8946 4.51957 21.7071 4.70711C21.5196 4.89464 21.2652 5 21 5Z" fill="white"/>
</svg>
