<svg width="64" height="64" viewBox="0 0 64 64" fill="none" xmlns="http://www.w3.org/2000/svg">
<path d="M58.3 9.6501C58.3 8.99742 58.1065 8.3594 57.7439 7.81672C57.3812 7.27404 56.8659 6.85107 56.2629 6.6013C55.6599 6.35153 54.9963 6.28618 54.3562 6.41351C53.7161 6.54084 53.1281 6.85513 52.6665 7.31665C52.205 7.77816 51.8907 8.36616 51.7634 9.0063C51.6361 9.64644 51.7014 10.31 51.9512 10.913C52.201 11.516 52.6239 12.0313 53.1666 12.3939C53.7093 12.7566 54.3473 12.9501 55 12.9501H52.5C51.7044 12.9501 50.9413 13.2662 50.3787 13.8288C49.8161 14.3914 49.5 15.1544 49.5 15.9501V22.0421C51.0712 20.816 53.007 20.15 55 20.15C56.993 20.15 58.9288 20.816 60.5 22.0421V15.9501C60.5 15.1544 60.1839 14.3914 59.6213 13.8288C59.0587 13.2662 58.2956 12.9501 57.5 12.9501H55C55.8752 12.9501 56.7146 12.6024 57.3335 11.9836C57.9523 11.3647 58.3 10.5253 58.3 9.6501Z" fill="rgb(30 41 59)"/>
<path d="M32 40.1499L22 58.1499H42L32 40.1499Z" fill="rgb(30 41 59)"/>
<path d="M1.34348 32.4407L1.10364 34.4272L62.6567 41.8585L62.8965 39.872L1.34348 32.4407Z" fill="rgb(30 41 59)"/>
<path d="M55 22.1501C53.6155 22.1501 52.2621 22.5606 51.111 23.3298C49.9598 24.099 49.0626 25.1922 48.5328 26.4713C48.003 27.7504 47.8644 29.1579 48.1345 30.5157C48.4046 31.8736 49.0712 33.1209 50.0502 34.0998C51.0292 35.0788 52.2765 35.7455 53.6343 36.0156C54.9922 36.2857 56.3997 36.1471 57.6787 35.6173C58.9578 35.0874 60.0511 34.1902 60.8202 33.0391C61.5894 31.8879 62 30.5346 62 29.1501C62 27.2936 61.2625 25.5131 59.9497 24.2003C58.6369 22.8876 56.8565 22.1501 55 22.1501ZM54.5 28.1501H55.5C56.1199 28.1495 56.718 28.3792 57.1781 28.7948C57.6382 29.2103 57.9275 29.782 57.9898 30.3988C58.0521 31.0157 57.883 31.6337 57.5153 32.1328C57.1476 32.632 56.6075 32.9767 56 33.1001V34.1501H54V33.1001C53.4354 32.9849 52.9281 32.6782 52.5636 32.2319C52.1992 31.7857 52.0001 31.2273 52 30.6511H54C54 30.7837 54.0526 30.9109 54.1464 31.0047C54.2402 31.0984 54.3673 31.1511 54.5 31.1511H55.5C55.6326 31.1511 55.7597 31.0984 55.8535 31.0047C55.9473 30.9109 56 30.7837 56 30.6511C56 30.5185 55.9473 30.3913 55.8535 30.2975C55.7597 30.2038 55.6326 30.1511 55.5 30.1511H54.5C53.8791 30.153 53.2798 29.9238 52.8186 29.5081C52.3575 29.0924 52.0675 28.52 52.0051 27.9023C51.9427 27.2846 52.1124 26.6658 52.4811 26.1663C52.8499 25.6668 53.3913 25.3224 54 25.2001V24.1501H56V25.2001C56.5645 25.3153 57.0719 25.622 57.4363 26.0683C57.8007 26.5145 57.9998 27.0729 58 27.6491H56C56 27.5165 55.9473 27.3893 55.8535 27.2955C55.7597 27.2018 55.6326 27.1491 55.5 27.1491H54.5C54.3673 27.1491 54.2402 27.2018 54.1464 27.2955C54.0526 27.3893 54 27.5165 54 27.6491C54 27.7817 54.0526 27.9089 54.1464 28.0027C54.2402 28.0964 54.3673 28.1491 54.5 28.1491V28.1501ZM14 5.8501C13.3473 5.8501 12.7093 6.04364 12.1666 6.40625C11.6239 6.76886 11.2009 7.28425 10.9512 7.88724C10.7014 8.49024 10.636 9.15376 10.7634 9.7939C10.8907 10.434 11.205 11.022 11.6665 11.4836C12.128 11.9451 12.716 12.2594 13.3562 12.3867C13.9963 12.514 14.6598 12.4487 15.2628 12.1989C15.8658 11.9491 16.3812 11.5262 16.7438 10.9835C17.1064 10.4408 17.3 9.80278 17.3 9.1501C17.3 8.27488 16.9523 7.43552 16.3334 6.81665C15.7145 6.19778 14.8752 5.8501 14 5.8501ZM15 22.1501V30.1501H26V22.1501C26 21.3544 25.6839 20.5914 25.1213 20.0288C24.5587 19.4662 23.7956 19.1501 23 19.1501H18C17.2043 19.1501 16.4412 19.4662 15.8786 20.0288C15.316 20.5914 15 21.3544 15 22.1501Z" fill="rgb(30 41 59)"/>
<path d="M20.5 19.1498C22.3225 19.1498 23.7999 17.6723 23.7999 15.8498C23.7999 14.0273 22.3225 12.5498 20.5 12.5498C18.6774 12.5498 17.2 14.0273 17.2 15.8498C17.2 17.6723 18.6774 19.1498 20.5 19.1498Z" fill="rgb(30 41 59)"/>
<path d="M2 22.1499V30.1499H13V22.1499C13 21.3543 12.6839 20.5912 12.1213 20.0286C11.5587 19.466 10.7956 19.1499 10 19.1499H5C4.20435 19.1499 3.44129 19.466 2.87868 20.0286C2.31607 20.5912 2 21.3543 2 22.1499Z" fill="rgb(30 41 59)"/>
<path d="M7.49995 19.1498C9.32249 19.1498 10.8 17.6723 10.8 15.8498C10.8 14.0273 9.32249 12.5498 7.49995 12.5498C5.67741 12.5498 4.19995 14.0273 4.19995 15.8498C4.19995 17.6723 5.67741 19.1498 7.49995 19.1498Z" fill="rgb(30 41 59)"/>
</svg>
