<svg width="27" height="27" viewBox="0 0 27 27" fill="none" xmlns="http://www.w3.org/2000/svg">
<rect x="2" y="1" width="23" height="24" fill="white"/>
<path d="M2 27H25C26 27 27 26 27 25V2C27 1 26 0 25 0H2C1 0 0 1 0 2V25C0 26 1 27 2 27ZM18.5625 4.21875C18.5625 3.99497 18.6514 3.78036 18.8096 3.62213C18.9679 3.46389 19.1825 3.375 19.4062 3.375H22.7812C23.005 3.375 23.2196 3.46389 23.3779 3.62213C23.5361 3.78036 23.625 3.99497 23.625 4.21875V7.59375C23.625 7.81753 23.5361 8.03214 23.3779 8.19037C23.2196 8.34861 23.005 8.4375 22.7812 8.4375H19.4062C19.1825 8.4375 18.9679 8.34861 18.8096 8.19037C18.6514 8.03214 18.5625 7.81753 18.5625 7.59375V4.21875ZM13.5194 8.19619C16.5139 8.19619 18.9405 10.5477 18.9405 13.4494C18.9405 16.3493 16.5139 18.7026 13.5194 18.7026C10.5275 18.7026 8.1 16.3493 8.1 13.4494C8.10084 10.5477 10.5283 8.19619 13.5194 8.19619ZM3.375 10.9688L5.47847 11.4261C5.24752 12.1764 5.13007 12.9571 5.13 13.7422C5.13 18.2292 8.88806 21.8708 13.5194 21.8708C18.1533 21.8708 21.9097 18.2301 21.9097 13.7422C21.9097 12.9364 21.7873 12.1601 21.562 11.4261L23.625 10.9688V22.7812C23.625 23.3727 23.3719 23.625 22.7812 23.625H4.21875C3.62897 23.625 3.375 23.3727 3.375 22.7812V10.9688Z" fill="url(#paint0_linear_174_30)"/>
<defs>
<linearGradient id="paint0_linear_174_30" x1="6.66137e-07" y1="14" x2="27" y2="14" gradientUnits="userSpaceOnUse">
<stop stop-color="#8B5CF6"/>
<stop offset="1" stop-color="#D946EF"/>
</linearGradient>
</defs>
</svg>
