<svg width="27" height="27" viewBox="0 0 27 27" fill="none" xmlns="http://www.w3.org/2000/svg">
<path d="M8.1853 10.4099H4.10693V22.6016H8.1853V10.4099Z" fill="white"/>
<path d="M6.14636 8.74542H6.11957C4.94778 8.81565 3.94056 7.92864 3.86989 6.76422C3.79922 5.59982 4.69185 4.59896 5.86366 4.52873C5.96686 4.52255 6.07039 4.52386 6.17339 4.53263C7.34469 4.44834 8.36299 5.32352 8.44783 6.48744C8.53268 7.65135 7.65194 8.66324 6.48064 8.74754C6.36934 8.75555 6.25755 8.75484 6.14636 8.74542ZM22.8898 22.6016H18.8121V16.0801C18.8121 14.4409 18.2216 13.323 16.7463 13.323C15.8038 13.3285 14.9663 13.9217 14.6538 14.8053C14.5494 15.1241 14.5038 15.459 14.5195 15.7939V22.6016H10.4417C10.4417 22.5979 10.4952 11.5537 10.4422 10.4101H14.5199V12.1381C15.2713 10.8384 16.688 10.0621 18.1952 10.1241C20.8782 10.1241 22.8898 11.8666 22.8898 15.6112V22.6016Z" fill="white"/>
<path d="M25.0044 0.000148722H1.99561C0.907293 -0.0128651 0.0140882 0.852785 0 1.93424V25.0664C0.0141697 26.1478 0.907375 27.0132 1.99561 26.9998H25.0044C26.0928 27.0133 26.9862 26.1476 27 25.0661V1.93424C26.9861 0.852704 26.0928 -0.0130406 25.0044 0.000148722ZM8.18537 22.6016H4.10699V10.4099H8.18537V22.6016ZM6.48071 8.74744C6.36935 8.75544 6.25759 8.75479 6.14639 8.74539H6.1196C4.9478 8.81559 3.94057 7.9286 3.86992 6.76417C3.79928 5.59974 4.6919 4.59887 5.86372 4.52867C5.96687 4.52249 6.07043 4.52381 6.17342 4.53255C7.34474 4.44825 8.36298 5.32348 8.44789 6.48741C8.53272 7.65124 7.65195 8.66315 6.48071 8.74744ZM22.8899 22.6015H18.8121V16.08C18.8121 14.4408 18.2217 13.3229 16.7464 13.3229C15.8038 13.3284 14.9663 13.9216 14.6538 14.8052C14.5494 15.124 14.5039 15.4589 14.5195 15.7938V22.6015H10.4418C10.4418 22.5979 10.4953 11.5536 10.4422 10.41H14.5199V12.138C15.2714 10.8383 16.6881 10.062 18.1952 10.124C20.8782 10.124 22.8899 11.8665 22.8899 15.6112L22.8899 22.6015Z" fill="url(#paint0_linear_174_11)"/>
<defs>
<linearGradient id="paint0_linear_174_11" x1="1.71639e-07" y1="14" x2="27" y2="14" gradientUnits="userSpaceOnUse">
<stop stop-color="#8B5CF6"/>
<stop offset="1" stop-color="#D946EF"/>
</linearGradient>
</defs>
</svg>
