<svg width="24" height="24" viewBox="0 0 24 24" fill="none" xmlns="http://www.w3.org/2000/svg">
<path fill-rule="evenodd" clip-rule="evenodd" d="M11.5 12.75C11.0858 12.75 10.75 13.0858 10.75 13.5C10.75 13.9142 11.0858 14.25 11.5 14.25C11.9142 14.25 12.25 13.9142 12.25 13.5C12.25 13.0858 11.9142 12.75 11.5 12.75ZM9.25 13.5C9.25 12.2574 10.2574 11.25 11.5 11.25C12.7426 11.25 13.75 12.2574 13.75 13.5C13.75 14.7426 12.7426 15.75 11.5 15.75C10.2574 15.75 9.25 14.7426 9.25 13.5Z" fill="white"/>
<path fill-rule="evenodd" clip-rule="evenodd" d="M9.37803 17.25H13.622C13.3131 16.3761 12.4797 15.75 11.5 15.75C10.5203 15.75 9.68691 16.3761 9.37803 17.25ZM7.75 18C7.75 15.9289 9.42893 14.25 11.5 14.25C13.5711 14.25 15.25 15.9289 15.25 18C15.25 18.4142 14.9142 18.75 14.5 18.75H8.5C8.08579 18.75 7.75 18.4142 7.75 18Z" fill="white"/>
<path fill-rule="evenodd" clip-rule="evenodd" d="M4.25 10.5C4.25 9.25736 5.25736 8.25 6.5 8.25H16.5C17.7426 8.25 18.75 9.25736 18.75 10.5V12C18.75 12.4142 18.4142 12.75 18 12.75C17.5858 12.75 17.25 12.4142 17.25 12V10.5C17.25 10.0858 16.9142 9.75 16.5 9.75H6.5C6.08579 9.75 5.75 10.0858 5.75 10.5V19.5C5.75 19.9142 6.08579 20.25 6.5 20.25H16.5C16.9142 20.25 17.25 19.9142 17.25 19.5V16C17.25 15.5858 17.5858 15.25 18 15.25C18.4142 15.25 18.75 15.5858 18.75 16V19.5C18.75 20.7426 17.7426 21.75 16.5 21.75H6.5C5.25736 21.75 4.25 20.7426 4.25 19.5V10.5Z" fill="white"/>
<path fill-rule="evenodd" clip-rule="evenodd" d="M6.75 6.5C6.75 4.15279 8.65279 2.25 11 2.25H12C14.3472 2.25 16.25 4.15279 16.25 6.5V9C16.25 9.41421 15.9142 9.75 15.5 9.75C15.0858 9.75 14.75 9.41421 14.75 9V6.5C14.75 4.98122 13.5188 3.75 12 3.75H11C9.48122 3.75 8.25 4.98122 8.25 6.5V9C8.25 9.41421 7.91421 9.75 7.5 9.75C7.08579 9.75 6.75 9.41421 6.75 9V6.5Z" fill="white"/>
</svg>
