<svg width="27" height="27" viewBox="0 0 27 27" fill="none" xmlns="http://www.w3.org/2000/svg">
<g clip-path="url(#clip0_174_15)">
<path d="M25 0H2C1 0 0 1 0 2V25C0 26 1 27 2 27H25C26 27 27 26 27 25V2C26.9921 1 26.0079 0 25 0Z" fill="url(#paint0_linear_174_15)"/>
<path d="M23.0449 8.01571C22.4198 8.43041 21.6857 8.65061 20.9355 8.64852C21.7376 8.17604 22.3381 7.42536 22.623 6.53915C21.9582 7.1012 21.1204 7.4177 20.25 7.43563C19.6761 6.84787 18.9271 6.46208 18.1154 6.33615C17.3036 6.21021 16.4729 6.35094 15.748 6.7372C15.023 7.12345 14.4428 7.73441 14.0946 8.47839C13.7463 9.22236 13.6487 10.0592 13.8164 10.8634C12.3395 10.7854 10.8955 10.3977 9.57816 9.72538C8.26083 9.05308 7.09962 8.11125 6.16992 6.96102C5.71499 7.78423 5.58179 8.74699 5.79612 9.66279C6.01046 10.5786 6.55708 11.3822 7.33008 11.9181C6.74669 11.9263 6.16924 11.8 5.64258 11.5489C5.65676 12.3984 5.95543 13.2185 6.49081 13.8782C7.02619 14.5379 7.76734 14.9989 8.5957 15.1876C8.04429 15.3316 7.46753 15.3496 6.9082 15.2403C7.14949 15.9929 7.61958 16.6514 8.25292 17.124C8.88627 17.5966 9.65132 17.8599 10.4414 17.877C8.77275 18.8893 6.85595 19.4187 4.9043 19.4063C6.53882 20.4734 8.43741 21.066 10.3887 21.118C12.34 21.17 14.2675 20.6795 15.9566 19.7011C17.6456 18.7226 19.03 17.2946 19.9556 15.576C20.8812 13.8574 21.3117 11.9156 21.1992 9.96688C21.8951 9.39781 22.5154 8.7421 23.0449 8.01571Z" fill="white"/>
</g>
<defs>
<linearGradient id="paint0_linear_174_15" x1="6.63741e-07" y1="14" x2="27" y2="14" gradientUnits="userSpaceOnUse">
<stop stop-color="#8B5CF6"/>
<stop offset="1" stop-color="#D946EF"/>
</linearGradient>
<clipPath id="clip0_174_15">
<rect width="27" height="27" rx="2" fill="white"/>
</clipPath>
</defs>
</svg>
